<?xml version="1.0" encoding="utf-8"?>
<!-- Generator: Adobe Illustrator 26.3.1, SVG Export Plug-In . SVG Version: 6.00 Build 0)  -->
<svg version="1.1" id="Layer_2" xmlns="http://www.w3.org/2000/svg" xmlns:xlink="http://www.w3.org/1999/xlink" x="0px" y="0px"
	 viewBox="0 0 1920 1080" style="enable-background:new 0 0 1920 1080;" xml:space="preserve">
<style type="text/css">
	.st0{fill:url(#SVGID_1_);}
	.st1{fill:#177E89;}
	.st2{fill:#E84855;}
	.st3{fill:none;stroke:#13696D;stroke-width:2;stroke-miterlimit:10;}
	.st4{opacity:0.65;}
	
		.st5{clip-path:url(#SVGID_00000129891354030395253020000015796177153504388261_);fill:#108FA0;stroke:#13696D;stroke-miterlimit:10;}
	
		.st6{opacity:0.47;clip-path:url(#SVGID_00000090268598460453843450000014625719119809808516_);fill:#108FA0;stroke:#13696D;stroke-miterlimit:10;}
	
		.st7{clip-path:url(#SVGID_00000145055500503401571950000017594382617923491745_);fill:#108FA0;stroke:#13696D;stroke-miterlimit:10;}
</style>
<linearGradient id="SVGID_1_" gradientUnits="userSpaceOnUse" x1="966.8342" y1="343.3565" x2="960.9252" y2="1195.5555">
	<stop  offset="0" style="stop-color:#FFFFFF;stop-opacity:0"/>
	<stop  offset="1" style="stop-color:#E84855"/>
</linearGradient>
<rect x="-219" y="353" class="st0" width="2367" height="654"/>
<g id="XMLID_00000183938853976567915440000016604501625459470512_">
	<g>
		<path class="st1" d="M1920,998.3v81.7H-1.2V977.7h549.6l50.3-4.9c44.4,7.6,88.3-12.4,129-31.8c31.4-15,63-30.2,90.6-51.4
			c45-34.6,80.1-85.6,134.3-102.4c19.9-6.1,41.1-7.1,60.8-14c39.5-13.8,67.2-48.9,102.5-71.4c15.6-9.9,32.8-17.6,47.7-28.3
			c4-2.9,7.9-6,11.5-9.5c12.3-11.9,20.9-27.2,33.5-38.8c21.8-20.1,52.4-26.8,81.5-32.7c16.1-3.3,32.7-6.5,48.8-3.4
			c28.5,5.6,49.1,29.7,67.3,52.3c16.7,20.7,33.4,41.5,50.1,62.2c5,6.2,10,12.5,16.3,17.4c8.7,6.9,19.3,11.1,28.2,17.7
			c8.9,6.7,16.3,17.3,14.2,28.2c-0.6,3.2-2.1,6.4-1.7,9.6c0.4,3.2,2.6,5.9,4.7,8.4c27.2,32.3,61.1,67.7,103.2,64.3
			c15.6-1.2,36.5-5.3,42.5,9.2c2.3,5.7,0.9,12,1,18.2c0.4,26.6,27.3,43.5,49.2,58.8c24.5,17.2,46.2,38.5,63.8,62.8h42H1920z"/>
		<path class="st1" d="M1819.7,997.8l-42,0.5c-17.6-24.2-39.3-45.5-63.8-62.8c-21.8-15.3-48.8-32.2-49.2-58.8
			c-0.1-6.1,1.3-12.5-1-18.2c-6-14.5-26.9-10.4-42.5-9.2c-42.1,3.3-76.1-32-103.2-64.3c-2.1-2.5-4.3-5.2-4.7-8.4
			c-0.4-3.2,1-6.4,1.7-9.6c2.2-10.9-5.3-21.6-14.2-28.2c-8.9-6.7-19.5-10.8-28.2-17.7c-6.2-5-11.3-11.2-16.3-17.4
			c-16.7-20.7-33.4-41.4-50.1-62.2c-18.2-22.6-38.8-46.7-67.3-52.3c-16.1-3.2-32.7,0.1-48.8,3.4c-29.1,5.9-59.7,12.5-81.5,32.7
			c-12.6,11.6-21.2,26.9-33.5,38.8c-3.6,3.5-7.4,6.6-11.5,9.5l0,0c-3.2-7.5-33.9,11.3-41,7.4c-7.2-3.9-14.1-12.3-10.3-19.5
			c-21.5,1.7-43.1,2.8-64.6,3.3v-0.1c40.2-20.6,92-44.8,134.2-61.1c22.5-8.7,47.7-19.1,56.5-41.6c3.4-8.7,3.8-18.5,8-26.8
			c8.8-18,31.1-24.2,50.9-26.9c19.8-2.7,41.7-4.6,55.7-18.8c9.7-9.8,13.8-23.8,21.4-35.3c7.6-11.5,22.4-21,34.8-14.8
			c3.4,1.7,6.3,4.5,9.9,5.9c13,4.9,23.7-10.3,35.2-18.2c10-7,23.6-8.5,34.9-4c-7.8,33.6-1,70.4,18.3,98.9
			c6.9,10.1,15.3,19.5,19.2,31.1c5,14.9,1.8,31.7,7.4,46.4c4.2,11,12.8,19.6,21.2,27.9c28.6,28.1,57.3,56.2,85.9,84.3
			c11.9,11.7,24.9,28.1,18.1,43.4c-1.4,3.2-3.6,6-4.4,9.4c-2.6,11.4,10.9,18.9,20.9,25c18.9,11.4,31.6,30.6,42.8,49.7
			C1750.4,893.3,1775.7,952.8,1819.7,997.8z"/>
		<path class="st2" d="M1506.2,309.7c4.3,7.6,4.3,16.7,4.1,25.4c-8.5,0-17.1,0-25.7,0v-0.3c-1.8-6-7.2-11.3-13.4-11.1
			c-5.9,0.1-11.2,6.8-9.1,12.2l-1.1,0.6c-9.8,1.5-19.8,1.9-29.7,1.2l-1.1,0.1c-0.7-5.9-0.7-11.8,1.3-17.2c2-5.5,5.9-10.1,10.4-13.8
			c7.9-6.5,17.8-10.5,27.9-11.8C1483.5,293.2,1499.3,297.6,1506.2,309.7z"/>
		<path class="st1" d="M1163.5,673.5L1163.5,673.5c-14.8,10.8-32.1,18.4-47.7,28.4c-35.2,22.5-63,57.6-102.5,71.4
			c-19.7,6.9-40.9,7.9-60.8,14C898.3,804,863.2,855,818.2,889.6C790.7,910.8,759,926,727.7,941c-40.6,19.4-84.6,39.4-129,31.8
			l-50.3,4.9c30.5-39.8,82.4-55.8,120.8-88c34.6-29,60-72.1,103.1-85.5c15.9-4.9,33.9-5.7,46.7-16.3c5.4-4.4,9.3-10.2,13.2-16
			c10.6-15.6,21.3-31.3,31.9-46.9c9-13.2,18.8-27.1,33.5-33.4c11.6-5,25.2-4.7,35.8-11.4c8.2-5.2,13.6-14,21.3-20.1
			c11.7-9.2,28.8-10.9,42.1-4.2c4.4,2.3,8.5,5.4,13.2,7c5.2,1.9,10.8,1.9,16.3,1.9c7.1,0,14.2-0.1,21.2-0.3
			c21.6-0.5,43.1-1.6,64.6-3.3c-3.8,7.2,3.1,15.6,10.3,19.5C1129.6,684.8,1160.3,666,1163.5,673.5z"/>
	</g>
	<g>
		<path class="st3" d="M1047.5,664.5c40.2-20.6,92-44.8,134.2-61.1c22.5-8.7,47.7-19.1,56.5-41.6c3.4-8.7,3.8-18.5,8-26.8
			c8.8-18,31.1-24.2,50.9-26.9c19.8-2.7,41.7-4.6,55.7-18.8c9.7-9.8,13.8-23.8,21.4-35.3c7.6-11.5,22.4-21,34.8-14.8
			c3.4,1.7,6.3,4.5,9.9,5.9c13,4.9,23.7-10.3,35.2-18.2c10-7,23.6-8.5,34.9-4c-7.8,33.6-1,70.4,18.3,98.9
			c6.9,10.1,15.3,19.5,19.2,31.1c5,14.9,1.8,31.7,7.4,46.4c4.2,11,12.8,19.6,21.2,27.9c28.6,28.1,57.3,56.2,85.9,84.3
			c11.9,11.7,24.9,28.1,18.1,43.4c-1.4,3.2-3.6,6-4.4,9.4c-2.6,11.4,10.9,18.9,20.9,25c18.9,11.4,31.6,30.6,42.8,49.7
			c31.8,54.3,57.1,113.8,101.1,158.9l-42,0.5c-17.6-24.2-39.3-45.5-63.8-62.8c-21.8-15.3-48.8-32.2-49.2-58.8
			c-0.1-6.1,1.3-12.5-1-18.2c-6-14.5-26.9-10.4-42.5-9.2c-42.1,3.3-76.1-32-103.2-64.3c-2.1-2.5-4.3-5.2-4.7-8.4
			c-0.4-3.2,1-6.4,1.7-9.6c2.2-10.9-5.3-21.6-14.2-28.2c-8.9-6.7-19.5-10.8-28.2-17.7c-6.2-5-11.3-11.2-16.3-17.4
			c-16.7-20.7-33.4-41.4-50.1-62.2c-18.2-22.6-38.8-46.7-67.3-52.3c-16.1-3.2-32.7,0.1-48.8,3.4c-29.1,5.9-59.7,12.5-81.5,32.7
			c-12.6,11.6-21.2,26.9-33.5,38.8c-3.6,3.5-7.4,6.6-11.5,9.5c-14.9,10.8-32.1,18.4-47.7,28.3c-35.2,22.5-63,57.6-102.5,71.4
			c-19.7,6.9-40.9,7.9-60.8,14C898.3,804,863.2,855,818.2,889.6C790.7,910.8,759,926,727.7,941c-40.6,19.4-84.6,39.4-129,31.8
			l-50.3,4.9c30.5-39.8,82.4-55.8,120.8-88c34.6-29,60-72.1,103.1-85.5c15.9-4.9,33.9-5.7,46.7-16.3c5.4-4.4,9.3-10.2,13.2-16
			c10.6-15.6,21.3-31.3,31.9-46.9c9-13.2,18.8-27.1,33.5-33.4c11.6-5,25.2-4.7,35.8-11.4c8.2-5.2,13.6-14,21.3-20.1
			c11.7-9.2,28.8-10.9,42.1-4.2c4.4,2.3,8.5,5.4,13.2,7c5.2,1.9,10.8,1.9,16.3,1.9c7.1,0,14.2-0.1,21.2-0.3
			c21.6-0.5,43.1-1.6,64.6-3.3c-3.8,7.2,3.1,15.6,10.3,19.5c7.2,3.9,37.8-14.9,41-7.4"/>
		<path class="st3" d="M1477.2,420.2c0.5-14.9,0.9-29.7,1.4-44.6"/>
		<path class="st3" d="M1481,370.9c-13.7,2.5-28.4-0.7-39.9-8.6c-2.7-1.8-5.2-3.9-6.9-6.7c-1.8-3-2.4-6.6-3-10.1
			c-0.4-2.5-0.8-5.1-1.1-7.7c-0.7-5.9-0.7-11.8,1.3-17.2c2-5.5,5.9-10.1,10.4-13.8c7.9-6.5,17.8-10.5,27.9-11.8
			c13.8-1.7,29.6,2.6,36.5,14.7c4.3,7.6,4.3,16.7,4.1,25.4c0,0.2,0,0.5,0,0.7c-0.2,6.9-0.5,14.2-4.3,19.9
			c-6.2,9.2-18.9,10.6-30,11.2"/>
		<path class="st3" d="M1431.2,337.7c9.9,0.7,19.9,0.3,29.7-1.2"/>
		<path class="st3" d="M1482.6,335.1c0.7,0,1.3,0,2,0c8.5,0,17.1,0,25.7,0c0.7,0,1.4,0,2.1,0"/>
		<path class="st3" d="M1484.6,334.8c-1.8-6-7.2-11.3-13.4-11.1c-5.9,0.1-11.2,6.8-9.1,12.2c0.1,0.3,0.2,0.5,0.4,0.8
			c3.1,5.6,11,5.3,17.3,4.3c1.5-0.2,2.9-0.5,4.4-0.7"/>
		<polyline class="st3" points="1777.7,998.3 1819.7,998.3 1920,998.3 1920,1080 -1.2,1080 -1.2,977.7 548.4,977.7 		"/>
	</g>
</g>
<g class="st4">
	<defs>
		<path id="SVGID_00000047030531569365536170000012421133961712823721_" class="st4" d="M1777.7,998.3l42-0.5
			c-44-45.1-69.3-104.5-101.1-158.9c-11.2-19.1-23.9-38.3-42.8-49.7c-10-6.1-23.5-13.6-20.9-25c0.8-3.4,3-6.2,4.4-9.4
			c6.8-15.3-6.2-31.6-18.1-43.4c-28.6-28.1-57.3-56.2-85.9-84.3c-8.4-8.3-17.1-16.9-21.3-27.9c-5.6-14.7-2.4-31.5-7.4-46.4
			c-3.9-11.6-12.4-21-19.2-31.1c-19.3-28.6-26.1-65.3-18.3-98.9c-11.3-4.5-24.9-3-35,4L1170,540l276.1,679.8l348.9-71.5
			L1777.7,998.3z"/>
	</defs>
	<clipPath id="SVGID_00000026130424062922332380000011311022281918656899_">
		<use xlink:href="#SVGID_00000047030531569365536170000012421133961712823721_"  style="overflow:visible;"/>
	</clipPath>
	
		<path style="clip-path:url(#SVGID_00000026130424062922332380000011311022281918656899_);fill:#108FA0;stroke:#13696D;stroke-miterlimit:10;" d="
		M1489,422.9c-18.1,22-21.6,50-19,80.5c0,0-4.2,56.3,2.5,65.1s0.8,75.4,10,73c0,0-31,126-31,136s125,122,142,124s72,47,72,47
		s82,37,82,40s60.1,26.9,60.1,26.9h60.9l-28.1-90.9l-167-435L1489,422.9z"/>
</g>
<g>
	<defs>
		<path id="SVGID_00000171686651961873213510000016030560534548717741_" d="M1153,725c-7.2-3.9-61-35-61-35s-37.1-25.2-65.7-25.1
			c-5.5,0-11.1,0-16.3-1.9c-4.7-1.7-8.7-4.8-13.2-7c-13.3-6.7-30.4-5-42.1,4.2c-7.7,6-13,14.8-21.3,20.1L946,794l21,40.4
			l226.2-125.1L1153,725z"/>
	</defs>
	<clipPath id="SVGID_00000173861763561781437520000017732942710593071022_">
		<use xlink:href="#SVGID_00000171686651961873213510000016030560534548717741_"  style="overflow:visible;"/>
	</clipPath>
	
		<path style="opacity:0.47;clip-path:url(#SVGID_00000173861763561781437520000017732942710593071022_);fill:#108FA0;stroke:#13696D;stroke-miterlimit:10;" d="
		M980,649c0,0-6,6-7,13s-13,37.6-13,37.6l-8,36.4c0,0-28,38-23,42c-3,11-7,30-7,30l28.5-20.5c0,0,48-8,77-20c18-7.8,93-68,93-68
		l2-18.6l-6.1-140.9"/>
</g>
<g>
	<defs>
		<path id="SVGID_00000141413600836900881170000000063185641566656423_" d="M1814,1019l-36.3-20.7c-17.6-24.2-39.3-45.5-63.8-62.8
			c-21.8-15.3-48.8-32.2-49.1-58.8c-0.1-6.1,1.3-12.5-1-18.1c-6-14.5-26.9-10.4-42.5-9.2c-42.1,3.3-76.1-32-103.2-64.3
			c-2.1-2.5-4.3-5.2-4.7-8.4c-0.4-3.2,1-6.4,1.7-9.6c2.2-10.9-5.3-21.6-14.2-28.2c-8.9-6.7-19.5-10.8-28.2-17.7
			c-6.2-5-11.3-11.2-16.3-17.4c-16.7-20.7-33.4-41.4-50.1-62.2c-18.2-22.6-38.8-46.7-67.3-52.3c-16.1-3.2-32.7,0.1-48.8,3.4
			l-55.5,181.9l-72,93l-100.7,110.2v170.7l837.7-26.8L1814,1019z"/>
	</defs>
	<clipPath id="SVGID_00000155105697792771956420000015140650380591956610_">
		<use xlink:href="#SVGID_00000141413600836900881170000000063185641566656423_"  style="overflow:visible;"/>
	</clipPath>
	
		<path style="clip-path:url(#SVGID_00000155105697792771956420000015140650380591956610_);fill:#108FA0;stroke:#13696D;stroke-miterlimit:10;" d="
		M1338.8,589.2c0,0-7.3,5.3-4.3,20.3s-53,85-49,149c0,0-73,53-65,79s-99,103-99,125s-23,144-23,144h845.1V910.9l-360.1-418.4
		L1338.8,589.2z"/>
</g>
</svg>
